<svg xmlns="http://www.w3.org/2000/svg" xmlns:xlink="http://www.w3.org/1999/xlink" width="195" zoomAndPan="magnify" viewBox="0 0 146.25 146.250002" height="195" preserveAspectRatio="xMidYMid meet" version="1.0"><defs><clipPath id="a22b245634"><path d="M 0 0 L 145.503906 0 L 145.503906 145.503906 L 0 145.503906 Z M 0 0 " clip-rule="nonzero"/></clipPath><clipPath id="e2080779fd"><path d="M 47.460938 49.640625 L 87.027344 49.640625 L 87.027344 95.742188 L 47.460938 95.742188 Z M 47.460938 49.640625 " clip-rule="nonzero"/></clipPath><clipPath id="eb2446ab0b"><path d="M 47.621094 70.617188 C 52.171875 59.125 55.382812 56.363281 57.769531 55.097656 C 59.558594 54.203125 62.46875 54.351562 63.066406 53.976562 C 63.289062 53.828125 63.289062 53.753906 63.363281 53.605469 C 63.441406 53.53125 63.589844 53.378906 63.664062 53.304688 C 63.738281 53.15625 63.886719 52.933594 63.960938 52.859375 C 64.035156 52.859375 64.035156 52.785156 64.109375 52.785156 C 64.109375 52.707031 64.261719 52.632812 64.261719 52.632812 C 64.261719 52.632812 64.933594 52.113281 65.304688 51.886719 C 65.679688 51.589844 66.425781 51.066406 66.425781 51.066406 C 66.425781 51.066406 66.648438 50.992188 66.722656 50.992188 C 66.796875 50.917969 66.796875 50.84375 66.945312 50.84375 C 67.019531 50.769531 67.320312 50.695312 67.46875 50.695312 C 67.542969 50.621094 67.542969 50.621094 67.617188 50.621094 C 67.917969 50.546875 68.886719 50.097656 68.886719 50.097656 C 68.886719 50.097656 69.558594 50.023438 69.855469 50.023438 C 70.007812 49.949219 70.15625 49.875 70.378906 49.875 C 70.527344 49.800781 70.601562 49.875 70.828125 49.875 C 71.050781 49.875 71.5 49.800781 71.5 49.800781 C 71.574219 49.800781 71.574219 49.800781 71.574219 49.800781 C 71.574219 49.800781 72.46875 49.875 72.839844 49.949219 C 73.140625 49.949219 73.289062 49.949219 73.511719 50.023438 C 73.664062 50.023438 73.8125 50.023438 73.886719 50.023438 C 73.960938 50.023438 73.960938 50.023438 74.035156 50.023438 C 74.109375 50.097656 74.183594 50.097656 74.183594 50.097656 C 74.183594 50.097656 75.304688 50.546875 75.304688 50.46875 C 75.304688 50.46875 75.078125 50.320312 75.078125 50.320312 C 75.078125 50.320312 75.378906 50.46875 75.601562 50.621094 C 75.902344 50.695312 76.648438 50.992188 76.648438 50.992188 C 76.722656 50.992188 76.871094 51.140625 77.019531 51.214844 C 77.09375 51.292969 77.167969 51.292969 77.242188 51.292969 C 77.394531 51.367188 77.691406 51.664062 77.691406 51.664062 C 77.765625 51.738281 78.140625 51.886719 78.214844 51.960938 C 78.363281 52.039062 78.363281 52.113281 78.511719 52.1875 C 78.585938 52.335938 78.886719 52.484375 78.886719 52.484375 C 78.886719 52.484375 79.332031 53.082031 79.558594 53.230469 C 79.707031 53.378906 79.855469 53.457031 80.003906 53.605469 C 80.078125 53.679688 80.152344 53.828125 80.226562 53.976562 C 80.378906 54.125 80.675781 54.425781 80.675781 54.5 C 80.675781 54.5 80.675781 54.5 80.75 54.5 C 80.75 54.574219 80.75 54.574219 80.75 54.574219 C 80.824219 54.648438 81.796875 55.917969 82.390625 57.113281 C 83.511719 59.199219 85.675781 63.453125 86.421875 66.664062 C 87.09375 69.722656 87.167969 72.929688 86.792969 75.988281 C 86.421875 78.972656 85.675781 82.257812 84.257812 84.945312 C 82.914062 87.480469 80.824219 90.019531 78.4375 91.734375 C 76.050781 93.523438 73.066406 95.015625 70.082031 95.539062 C 67.019531 95.988281 63.214844 95.6875 60.378906 94.496094 C 57.621094 93.375 55.15625 90.914062 53.21875 88.523438 C 51.351562 86.136719 49.785156 83.152344 48.890625 80.167969 C 47.917969 77.183594 47.621094 70.617188 47.621094 70.617188 " clip-rule="nonzero"/></clipPath><clipPath id="195249d965"><path d="M 77.605469 51.207031 L 99.53125 51.207031 L 99.53125 73.683594 L 77.605469 73.683594 Z M 77.605469 51.207031 " clip-rule="nonzero"/></clipPath><clipPath id="94c01c60dd"><path d="M 99.476562 59.046875 C 99.476562 66.136719 98.65625 67.925781 97.613281 69.34375 C 96.566406 70.6875 95 71.882812 93.433594 72.628906 C 91.792969 73.300781 89.851562 73.671875 88.136719 73.597656 C 86.421875 73.449219 84.480469 72.851562 82.988281 71.957031 C 81.570312 71.0625 80.152344 69.71875 79.257812 68.226562 C 78.363281 66.734375 77.765625 64.792969 77.617188 63.078125 C 77.539062 61.359375 77.914062 59.421875 78.585938 57.851562 C 79.332031 56.210938 80.523438 54.644531 81.941406 53.601562 C 83.285156 52.554688 85.078125 51.734375 86.792969 51.4375 C 88.507812 51.0625 90.523438 51.210938 92.164062 51.734375 C 93.808594 52.257812 96.71875 54.496094 96.71875 54.496094 " clip-rule="nonzero"/></clipPath><clipPath id="9143f458f8"><path d="M 78.925781 70.5 L 95.992188 70.5 L 95.992188 87.570312 L 78.925781 87.570312 Z M 78.925781 70.5 " clip-rule="nonzero"/></clipPath><clipPath id="9eb5766640"><path d="M 93.613281 84.011719 C 89.0625 87.292969 86.824219 87.519531 85.480469 87.367188 C 84.511719 87.292969 83.914062 87.070312 83.09375 86.546875 C 81.972656 85.800781 80.332031 84.234375 79.660156 82.816406 C 79.0625 81.324219 78.988281 79.085938 79.214844 77.742188 C 79.363281 76.847656 79.585938 76.175781 80.183594 75.429688 C 81.003906 74.308594 82.871094 72.816406 84.136719 72.222656 C 84.957031 71.773438 85.628906 71.625 86.601562 71.699219 C 87.945312 71.773438 90.257812 72.445312 91.449219 73.117188 C 92.269531 73.640625 92.792969 74.085938 93.316406 74.90625 C 93.988281 76.101562 94.734375 78.339844 94.808594 79.757812 C 94.882812 80.726562 94.734375 81.398438 94.359375 82.21875 C 93.839844 83.488281 92.347656 85.355469 91.226562 86.25 C 90.480469 86.847656 89.734375 87.070312 88.914062 87.21875 C 88.09375 87.441406 87.273438 87.667969 86.375 87.519531 C 85.035156 87.292969 82.871094 86.621094 81.675781 85.503906 C 80.480469 84.457031 79.511719 82.445312 79.136719 81.175781 C 78.914062 80.207031 78.988281 79.460938 79.0625 78.636719 C 79.136719 77.742188 79.363281 76.996094 79.808594 76.175781 C 80.332031 75.132812 81.300781 73.863281 82.347656 72.96875 C 83.242188 72.148438 84.363281 71.324219 85.554688 70.953125 C 86.675781 70.578125 88.019531 70.355469 89.359375 70.730469 C 90.929688 71.101562 93.09375 72.222656 94.136719 73.5625 C 95.257812 74.90625 96.003906 77.144531 95.925781 78.9375 C 95.777344 80.652344 93.613281 84.011719 93.613281 84.011719 " clip-rule="nonzero"/></clipPath><clipPath id="dbd840a76b"><path d="M 56.449219 48.453125 L 89 48.453125 L 89 92.476562 L 56.449219 92.476562 Z M 56.449219 48.453125 " clip-rule="nonzero"/></clipPath></defs><g clip-path="url(#a22b245634)"><path fill="#ffffff" d="M 0 0 L 145.503906 0 L 145.503906 145.503906 L 0 145.503906 Z M 0 0 " fill-opacity="1" fill-rule="nonzero"/><path fill="#3164ff" d="M 72.707031 -0.0078125 C 112.710938 -0.0078125 145.417969 32.699219 145.417969 72.703125 C 145.417969 112.703125 112.710938 145.410156 72.707031 145.410156 C 32.707031 145.410156 0 112.703125 0 72.703125 C 0 32.699219 32.707031 -0.0078125 72.707031 -0.0078125 Z M 72.707031 -0.0078125 " fill-opacity="1" fill-rule="evenodd"/></g><path fill="#fffffe" d="M 72.707031 32.941406 C 64.207031 40.316406 55.695312 43.546875 40.828125 45.058594 L 40.828125 65.296875 C 40.828125 84.097656 54.210938 103.867188 72.707031 112.464844 C 91.203125 103.867188 104.589844 84.097656 104.589844 65.296875 L 104.589844 45.058594 C 89.722656 43.546875 81.210938 40.316406 72.707031 32.941406 Z M 101.847656 65.410156 C 101.847656 69.835938 101.089844 74.339844 99.59375 78.800781 C 98.167969 83.050781 96.101562 87.1875 93.449219 91.097656 C 88.261719 98.75 81.035156 105.164062 73.101562 109.15625 C 72.980469 109.21875 72.84375 109.25 72.707031 109.25 C 72.574219 109.25 72.4375 109.21875 72.3125 109.15625 C 64.378906 105.164062 57.152344 98.75 51.964844 91.097656 C 49.316406 87.1875 47.25 83.050781 45.824219 78.800781 C 44.328125 74.339844 43.570312 69.835938 43.570312 65.410156 L 43.570312 48.285156 C 43.570312 47.839844 43.902344 47.46875 44.339844 47.414062 C 56.507812 45.929688 64.566406 42.890625 72.164062 36.917969 C 72.484375 36.667969 72.933594 36.667969 73.25 36.917969 C 80.847656 42.890625 88.910156 45.929688 101.074219 47.414062 C 101.515625 47.46875 101.847656 47.839844 101.847656 48.285156 Z M 101.847656 65.410156 " fill-opacity="1" fill-rule="evenodd"/><path fill="#fffffe" d="M 72.707031 38.71875 C 68.664062 41.8125 64.410156 44.140625 59.726562 45.816406 C 55.601562 47.292969 51.011719 48.328125 45.324219 49.058594 L 45.324219 65.410156 C 45.324219 81.878906 56.566406 99.078125 72.707031 107.386719 C 88.851562 99.078125 100.089844 81.878906 100.089844 65.410156 L 100.089844 49.058594 C 94.40625 48.328125 89.8125 47.292969 85.691406 45.816406 C 81.007812 44.140625 76.753906 41.8125 72.707031 38.71875 Z M 85.589844 84.382812 C 82.148438 87.824219 77.574219 89.71875 72.707031 89.71875 C 67.84375 89.71875 63.269531 87.824219 59.828125 84.382812 C 56.386719 80.941406 54.492188 76.367188 54.492188 71.503906 C 54.492188 66.636719 56.386719 62.0625 59.828125 58.625 C 63.269531 55.183594 67.84375 53.289062 72.707031 53.289062 C 77.574219 53.289062 82.148438 55.183594 85.589844 58.625 C 89.027344 62.0625 90.921875 66.636719 90.921875 71.503906 C 90.921875 76.367188 89.027344 80.941406 85.589844 84.382812 Z M 85.589844 84.382812 " fill-opacity="1" fill-rule="evenodd"/><path fill="#fffffe" d="M 72.707031 55.042969 C 63.632812 55.042969 56.25 62.429688 56.25 71.503906 C 56.25 80.578125 63.632812 87.960938 72.707031 87.960938 C 81.785156 87.960938 89.167969 80.578125 89.167969 71.503906 C 89.167969 62.429688 81.785156 55.042969 72.707031 55.042969 Z M 81.113281 66.125 L 69.113281 78.125 C 68.949219 78.289062 68.726562 78.382812 68.492188 78.382812 C 68.261719 78.382812 68.039062 78.289062 67.871094 78.125 L 61.875 72.125 C 61.53125 71.78125 61.53125 71.226562 61.875 70.882812 C 62.214844 70.539062 62.773438 70.539062 63.113281 70.882812 L 68.492188 76.261719 L 79.871094 64.882812 C 80.214844 64.539062 80.769531 64.539062 81.113281 64.882812 C 81.457031 65.226562 81.457031 65.78125 81.113281 66.125 Z M 81.113281 66.125 " fill-opacity="1" fill-rule="evenodd"/><g clip-path="url(#e2080779fd)"><g clip-path="url(#eb2446ab0b)"><path fill="#fffffe" d="M 44.636719 46.8125 L 89.855469 46.8125 L 89.855469 98.566406 L 44.636719 98.566406 Z M 44.636719 46.8125 " fill-opacity="1" fill-rule="nonzero"/></g></g><g clip-path="url(#195249d965)"><g clip-path="url(#94c01c60dd)"><path fill="#fffffe" d="M 74.628906 48.453125 L 102.835938 48.453125 L 102.835938 76.65625 L 74.628906 76.65625 Z M 74.628906 48.453125 " fill-opacity="1" fill-rule="nonzero"/></g></g><g clip-path="url(#9143f458f8)"><g clip-path="url(#9eb5766640)"><path fill="#fffffe" d="M 76.078125 67.746094 L 98.925781 67.746094 L 98.925781 90.503906 L 76.078125 90.503906 Z M 76.078125 67.746094 " fill-opacity="1" fill-rule="nonzero"/></g></g><g clip-path="url(#dbd840a76b)"><path fill="#3164ff" d="M 87.332031 66.308594 L 85.085938 66.308594 L 85.085938 60.847656 C 85.097656 54.011719 79.539062 48.453125 72.703125 48.453125 C 65.863281 48.453125 60.304688 54.011719 60.304688 60.847656 L 60.304688 66.308594 L 58.070312 66.308594 C 57.179688 66.308594 56.457031 67.03125 56.457031 67.921875 L 56.457031 90.894531 C 56.457031 91.777344 57.179688 92.5 58.070312 92.5 L 87.34375 92.5 C 88.234375 92.5 88.953125 91.777344 88.953125 90.886719 L 88.953125 67.921875 C 88.945312 67.03125 88.222656 66.308594 87.332031 66.308594 Z M 63.53125 60.847656 C 63.53125 55.789062 67.644531 51.675781 72.703125 51.675781 C 77.757812 51.675781 81.871094 55.789062 81.871094 60.847656 L 81.871094 66.308594 L 63.53125 66.308594 Z M 74.3125 80.5625 L 74.3125 84.800781 C 74.3125 85.6875 73.589844 86.410156 72.703125 86.410156 C 71.8125 86.410156 71.089844 85.6875 71.089844 84.800781 L 71.089844 80.5625 C 69.980469 79.980469 69.222656 78.816406 69.222656 77.488281 C 69.222656 75.566406 70.78125 74.015625 72.691406 74.015625 C 74.613281 74.015625 76.164062 75.574219 76.164062 77.488281 C 76.179688 78.816406 75.421875 79.980469 74.3125 80.5625 Z M 74.3125 80.5625 " fill-opacity="1" fill-rule="nonzero"/></g></svg>