<svg xmlns="http://www.w3.org/2000/svg" xmlns:xlink="http://www.w3.org/1999/xlink" width="55" zoomAndPan="magnify" viewBox="0 0 41.25 48.749998" height="65" preserveAspectRatio="xMidYMid meet" version="1.0"><defs><clipPath id="9fd83fd8a4"><path d="M 0 0.3125 L 40 0.3125 L 40 47.679688 L 0 47.679688 Z M 0 0.3125 " clip-rule="nonzero"/></clipPath><clipPath id="c7e58433eb"><path d="M 11.375 9.34375 L 28.800781 9.34375 L 28.800781 32.578125 L 11.375 32.578125 Z M 11.375 9.34375 " clip-rule="nonzero"/></clipPath></defs><g clip-path="url(#9fd83fd8a4)"><path fill="#3164ff" d="M 39.578125 7.210938 C 38.988281 6.539062 38.003906 6.714844 37.214844 6.539062 C 31.492188 5.59375 26.117188 3.257812 20.984375 0.636719 C 20.738281 0.519531 20.484375 0.421875 20.226562 0.332031 L 19.859375 0.332031 C 18.964844 0.597656 18.175781 1.109375 17.335938 1.496094 C 12.832031 3.707031 8.109375 5.613281 3.144531 6.484375 C 2.429688 6.628906 1.6875 6.617188 0.988281 6.828125 C 0.433594 7.070312 0.0273438 7.652344 0.0585938 8.269531 C 0 11.691406 0.125 15.117188 0.390625 18.53125 C 0.777344 22.875 1.40625 27.242188 2.867188 31.367188 C 3.574219 33.28125 4.476562 35.164062 5.832031 36.707031 C 9.539062 41.09375 14.140625 44.6875 19.175781 47.425781 C 19.390625 47.53125 19.617188 47.617188 19.84375 47.6875 L 20.167969 47.6875 C 21.066406 47.433594 21.808594 46.835938 22.628906 46.414062 C 26.53125 44.105469 30.101562 41.230469 33.175781 37.894531 C 34.105469 36.84375 35.058594 35.792969 35.722656 34.546875 C 37.269531 31.800781 38.085938 28.71875 38.695312 25.648438 C 39.746094 20.050781 40.019531 14.335938 39.988281 8.652344 C 40.003906 8.144531 39.964844 7.585938 39.578125 7.210938 Z M 37.40625 24.390625 C 36.777344 27.835938 35.960938 31.347656 34.109375 34.367188 C 32.460938 36.75 30.339844 38.757812 28.167969 40.65625 C 25.664062 42.792969 22.910156 44.625 20.019531 46.203125 C 14.949219 43.449219 10.304688 39.832031 6.640625 35.359375 C 4.753906 32.941406 3.859375 29.9375 3.152344 27 C 1.789062 20.835938 1.464844 14.492188 1.550781 8.199219 C 8.09375 7.460938 14.207031 4.769531 20.019531 1.820312 C 25.835938 4.773438 31.953125 7.457031 38.496094 8.195312 C 38.578125 13.609375 38.320312 19.042969 37.40625 24.390625 Z M 37.40625 24.390625 " fill-opacity="1" fill-rule="nonzero"/></g><path fill="#3164ff" d="M 4.492188 10.769531 C 4.601562 16.59375 4.933594 22.480469 6.472656 28.128906 C 7.078125 30.207031 7.851562 32.324219 9.335938 33.949219 C 12.324219 37.519531 16.03125 40.433594 20.023438 42.808594 C 24.269531 40.28125 28.191406 37.132812 31.277344 33.253906 C 32.738281 31.246094 33.429688 28.8125 34 26.429688 C 35.152344 21.296875 35.460938 16.015625 35.546875 10.769531 C 30.113281 9.722656 24.953125 7.605469 20.019531 5.140625 C 15.085938 7.605469 9.925781 9.722656 4.492188 10.769531 Z M 4.492188 10.769531 " fill-opacity="1" fill-rule="nonzero"/><g clip-path="url(#c7e58433eb)"><path fill="#fffffe" d="M 27.769531 18.824219 L 26.578125 18.824219 L 26.578125 15.921875 C 26.582031 12.292969 23.632812 9.34375 20.003906 9.34375 C 16.375 9.34375 13.421875 12.292969 13.421875 15.921875 L 13.421875 18.824219 L 12.234375 18.824219 C 11.761719 18.824219 11.378906 19.207031 11.378906 19.679688 L 11.378906 31.875 C 11.378906 32.34375 11.761719 32.726562 12.234375 32.726562 L 27.773438 32.726562 C 28.246094 32.726562 28.628906 32.34375 28.628906 31.871094 L 28.628906 19.679688 C 28.625 19.207031 28.242188 18.824219 27.769531 18.824219 Z M 15.132812 15.921875 C 15.132812 13.238281 17.316406 11.054688 20.003906 11.054688 C 22.6875 11.054688 24.871094 13.238281 24.871094 15.921875 L 24.871094 18.824219 L 15.132812 18.824219 Z M 20.859375 26.390625 L 20.859375 28.640625 C 20.859375 29.113281 20.476562 29.496094 20.003906 29.496094 C 19.53125 29.496094 19.148438 29.113281 19.148438 28.640625 L 19.148438 26.390625 C 18.558594 26.082031 18.15625 25.464844 18.15625 24.757812 C 18.15625 23.738281 18.984375 22.914062 19.996094 22.914062 C 21.015625 22.914062 21.839844 23.742188 21.839844 24.757812 C 21.847656 25.464844 21.449219 26.082031 20.859375 26.390625 Z M 20.859375 26.390625 " fill-opacity="1" fill-rule="nonzero"/></g></svg>